<svg width="101" height="100" fill="none" xmlns="http://www.w3.org/2000/svg"><g opacity=".1"><circle cx="50.5" cy="50" r="50" fill="#2F70FE"/><circle cx="50.5" cy="50" r="50" stroke="#2F70FE"/></g><path d="M31.833 69.167h38.334M38.5 60.834h-5v8.333h5v-8.334zM48.5 52.5h-5v16.667h5V52.5zM58.5 55.834h-5v13.333h5V55.833zM68.5 44.167h-5v25h5v-25zM36 50.833a1.667 1.667 0 100-3.333 1.667 1.667 0 000 3.333zM46 42.5a1.667 1.667 0 100-3.333 1.667 1.667 0 000 3.333zM56 45.833a1.667 1.667 0 100-3.333 1.667 1.667 0 000 3.333zM66 34.167a1.667 1.667 0 100-3.334 1.667 1.667 0 000 3.334zM37.333 48.167l7.334-6.334" stroke="#000" stroke-miterlimit="10" stroke-linecap="round" stroke-linejoin="round"/><path d="M47.5 41.334l7 2.333" stroke="#000" stroke-miterlimit="10" stroke-linejoin="round"/><path d="M64.833 33.834l-7.666 9" stroke="#000" stroke-miterlimit="10" stroke-linecap="round" stroke-linejoin="round"/></svg>